<mxfile host="app.diagrams.net" modified="2023-05-21T13:12:55.757Z" agent="Mozilla/5.0 (Windows NT 10.0; Win64; x64) AppleWebKit/537.36 (KHTML, like Gecko) Chrome/113.0.0.0 Safari/537.36" etag="pun2OFl1eG1ZO37fSb2S" version="21.3.2" type="device">
  <diagram name="Page-1" id="GWpJw83f7aY0Phrab6Za">
    <mxGraphModel dx="940" dy="420" grid="1" gridSize="10" guides="1" tooltips="1" connect="1" arrows="1" fold="1" page="1" pageScale="1" pageWidth="827" pageHeight="1169" math="0" shadow="0">
      <root>
        <mxCell id="0" />
        <mxCell id="1" parent="0" />
        <mxCell id="ss-a0GwKhW8LE09BxFzK-14" value="" style="edgeStyle=orthogonalEdgeStyle;rounded=0;orthogonalLoop=1;jettySize=auto;html=1;" edge="1" parent="1" source="ss-a0GwKhW8LE09BxFzK-1" target="ss-a0GwKhW8LE09BxFzK-4">
          <mxGeometry relative="1" as="geometry" />
        </mxCell>
        <mxCell id="ss-a0GwKhW8LE09BxFzK-1" value="Data Collection" style="rounded=0;whiteSpace=wrap;html=1;" vertex="1" parent="1">
          <mxGeometry x="330" y="40" width="120" height="60" as="geometry" />
        </mxCell>
        <mxCell id="ss-a0GwKhW8LE09BxFzK-3" value="Exploratory Data Analysis" style="rounded=0;whiteSpace=wrap;html=1;" vertex="1" parent="1">
          <mxGeometry x="330" y="120" width="120" height="60" as="geometry" />
        </mxCell>
        <mxCell id="ss-a0GwKhW8LE09BxFzK-15" value="" style="edgeStyle=orthogonalEdgeStyle;rounded=0;orthogonalLoop=1;jettySize=auto;html=1;" edge="1" parent="1" source="ss-a0GwKhW8LE09BxFzK-4" target="ss-a0GwKhW8LE09BxFzK-10">
          <mxGeometry relative="1" as="geometry" />
        </mxCell>
        <mxCell id="ss-a0GwKhW8LE09BxFzK-4" value="Prediction Model" style="rounded=0;whiteSpace=wrap;html=1;" vertex="1" parent="1">
          <mxGeometry x="330" y="200" width="120" height="60" as="geometry" />
        </mxCell>
        <mxCell id="ss-a0GwKhW8LE09BxFzK-5" value="Logistic Regression" style="rounded=0;whiteSpace=wrap;html=1;" vertex="1" parent="1">
          <mxGeometry x="100" y="280" width="100" height="50" as="geometry" />
        </mxCell>
        <mxCell id="ss-a0GwKhW8LE09BxFzK-6" value="Decision Tree" style="rounded=0;whiteSpace=wrap;html=1;" vertex="1" parent="1">
          <mxGeometry x="220" y="280" width="100" height="50" as="geometry" />
        </mxCell>
        <mxCell id="ss-a0GwKhW8LE09BxFzK-7" value="Random Forest" style="rounded=0;whiteSpace=wrap;html=1;" vertex="1" parent="1">
          <mxGeometry x="340" y="280" width="100" height="50" as="geometry" />
        </mxCell>
        <mxCell id="ss-a0GwKhW8LE09BxFzK-8" value="Extra Trees Classification" style="rounded=0;whiteSpace=wrap;html=1;" vertex="1" parent="1">
          <mxGeometry x="460" y="280" width="100" height="50" as="geometry" />
        </mxCell>
        <mxCell id="ss-a0GwKhW8LE09BxFzK-9" value="LightGBM Classification" style="rounded=0;whiteSpace=wrap;html=1;" vertex="1" parent="1">
          <mxGeometry x="580" y="280" width="100" height="50" as="geometry" />
        </mxCell>
        <mxCell id="ss-a0GwKhW8LE09BxFzK-16" value="" style="edgeStyle=orthogonalEdgeStyle;rounded=0;orthogonalLoop=1;jettySize=auto;html=1;" edge="1" parent="1" source="ss-a0GwKhW8LE09BxFzK-10" target="ss-a0GwKhW8LE09BxFzK-11">
          <mxGeometry relative="1" as="geometry" />
        </mxCell>
        <mxCell id="ss-a0GwKhW8LE09BxFzK-10" value="Model Evaluation &lt;br&gt;&amp;amp; Analysis" style="rounded=0;whiteSpace=wrap;html=1;" vertex="1" parent="1">
          <mxGeometry x="330" y="350" width="120" height="60" as="geometry" />
        </mxCell>
        <mxCell id="ss-a0GwKhW8LE09BxFzK-17" value="" style="edgeStyle=orthogonalEdgeStyle;rounded=0;orthogonalLoop=1;jettySize=auto;html=1;" edge="1" parent="1" source="ss-a0GwKhW8LE09BxFzK-11" target="ss-a0GwKhW8LE09BxFzK-12">
          <mxGeometry relative="1" as="geometry" />
        </mxCell>
        <mxCell id="ss-a0GwKhW8LE09BxFzK-11" value="Model Selection" style="rounded=0;whiteSpace=wrap;html=1;" vertex="1" parent="1">
          <mxGeometry x="330" y="430" width="120" height="60" as="geometry" />
        </mxCell>
        <mxCell id="ss-a0GwKhW8LE09BxFzK-18" value="" style="edgeStyle=orthogonalEdgeStyle;rounded=0;orthogonalLoop=1;jettySize=auto;html=1;" edge="1" parent="1" source="ss-a0GwKhW8LE09BxFzK-12" target="ss-a0GwKhW8LE09BxFzK-13">
          <mxGeometry relative="1" as="geometry" />
        </mxCell>
        <mxCell id="ss-a0GwKhW8LE09BxFzK-12" value="Web Application" style="rounded=0;whiteSpace=wrap;html=1;" vertex="1" parent="1">
          <mxGeometry x="470" y="430" width="120" height="60" as="geometry" />
        </mxCell>
        <mxCell id="ss-a0GwKhW8LE09BxFzK-13" value="Deployment" style="rounded=0;whiteSpace=wrap;html=1;" vertex="1" parent="1">
          <mxGeometry x="610" y="430" width="120" height="60" as="geometry" />
        </mxCell>
        <mxCell id="ss-a0GwKhW8LE09BxFzK-20" value="" style="endArrow=classic;html=1;rounded=0;entryX=0.5;entryY=0;entryDx=0;entryDy=0;exitX=0;exitY=0.5;exitDx=0;exitDy=0;" edge="1" parent="1" source="ss-a0GwKhW8LE09BxFzK-4" target="ss-a0GwKhW8LE09BxFzK-5">
          <mxGeometry width="50" height="50" relative="1" as="geometry">
            <mxPoint x="170" y="240" as="sourcePoint" />
            <mxPoint x="220" y="190" as="targetPoint" />
          </mxGeometry>
        </mxCell>
        <mxCell id="ss-a0GwKhW8LE09BxFzK-21" value="" style="endArrow=classic;html=1;rounded=0;entryX=0.418;entryY=-0.012;entryDx=0;entryDy=0;entryPerimeter=0;" edge="1" parent="1" target="ss-a0GwKhW8LE09BxFzK-9">
          <mxGeometry width="50" height="50" relative="1" as="geometry">
            <mxPoint x="450" y="230" as="sourcePoint" />
            <mxPoint x="580" y="250" as="targetPoint" />
          </mxGeometry>
        </mxCell>
        <mxCell id="ss-a0GwKhW8LE09BxFzK-22" value="" style="endArrow=classic;html=1;rounded=0;entryX=0.5;entryY=0;entryDx=0;entryDy=0;exitX=1;exitY=0.5;exitDx=0;exitDy=0;" edge="1" parent="1" source="ss-a0GwKhW8LE09BxFzK-4" target="ss-a0GwKhW8LE09BxFzK-8">
          <mxGeometry width="50" height="50" relative="1" as="geometry">
            <mxPoint x="460" y="240" as="sourcePoint" />
            <mxPoint x="632" y="289" as="targetPoint" />
          </mxGeometry>
        </mxCell>
        <mxCell id="ss-a0GwKhW8LE09BxFzK-23" value="" style="endArrow=classic;html=1;rounded=0;entryX=0.5;entryY=0;entryDx=0;entryDy=0;exitX=0;exitY=0.5;exitDx=0;exitDy=0;" edge="1" parent="1" source="ss-a0GwKhW8LE09BxFzK-4" target="ss-a0GwKhW8LE09BxFzK-6">
          <mxGeometry width="50" height="50" relative="1" as="geometry">
            <mxPoint x="340" y="240" as="sourcePoint" />
            <mxPoint x="160" y="290" as="targetPoint" />
          </mxGeometry>
        </mxCell>
        <mxCell id="ss-a0GwKhW8LE09BxFzK-24" value="" style="endArrow=classic;html=1;rounded=0;entryX=0;entryY=0.5;entryDx=0;entryDy=0;exitX=0.5;exitY=1;exitDx=0;exitDy=0;" edge="1" parent="1" source="ss-a0GwKhW8LE09BxFzK-5" target="ss-a0GwKhW8LE09BxFzK-10">
          <mxGeometry width="50" height="50" relative="1" as="geometry">
            <mxPoint x="210" y="410" as="sourcePoint" />
            <mxPoint x="260" y="360" as="targetPoint" />
          </mxGeometry>
        </mxCell>
        <mxCell id="ss-a0GwKhW8LE09BxFzK-25" value="" style="endArrow=classic;html=1;rounded=0;entryX=1;entryY=0.5;entryDx=0;entryDy=0;exitX=0.5;exitY=1;exitDx=0;exitDy=0;" edge="1" parent="1" source="ss-a0GwKhW8LE09BxFzK-9" target="ss-a0GwKhW8LE09BxFzK-10">
          <mxGeometry width="50" height="50" relative="1" as="geometry">
            <mxPoint x="550" y="340" as="sourcePoint" />
            <mxPoint x="730" y="390" as="targetPoint" />
          </mxGeometry>
        </mxCell>
        <mxCell id="ss-a0GwKhW8LE09BxFzK-26" value="" style="endArrow=classic;html=1;rounded=0;exitX=0.5;exitY=1;exitDx=0;exitDy=0;" edge="1" parent="1" source="ss-a0GwKhW8LE09BxFzK-8">
          <mxGeometry width="50" height="50" relative="1" as="geometry">
            <mxPoint x="640" y="340" as="sourcePoint" />
            <mxPoint x="450" y="380" as="targetPoint" />
          </mxGeometry>
        </mxCell>
        <mxCell id="ss-a0GwKhW8LE09BxFzK-27" value="" style="endArrow=classic;html=1;rounded=0;entryX=0;entryY=0.5;entryDx=0;entryDy=0;exitX=0.5;exitY=1;exitDx=0;exitDy=0;" edge="1" parent="1" source="ss-a0GwKhW8LE09BxFzK-6" target="ss-a0GwKhW8LE09BxFzK-10">
          <mxGeometry width="50" height="50" relative="1" as="geometry">
            <mxPoint x="160" y="340" as="sourcePoint" />
            <mxPoint x="340" y="390" as="targetPoint" />
          </mxGeometry>
        </mxCell>
      </root>
    </mxGraphModel>
  </diagram>
</mxfile>
